<?xml version="1.0" encoding="UTF-8"?>
<svg xmlns="http://www.w3.org/2000/svg" version="1.1" viewBox="0 0 24 24">
  <!-- Generator: Adobe Illustrator 30.6.0, SVG Export Plug-In . SVG Version: 2.1.4 Build 109)  -->
  <defs>
    <style>
      .st0 {
        stroke-linecap: round;
        stroke-linejoin: round;
      }

      .st0, .st1 {
        fill: none;
        opacity: .2;
        stroke: #ccc;
        stroke-width: .1px;
      }

      .st1 {
        stroke-miterlimit: 10;
      }

      .st2 {
        fill: red;
        opacity: .15;
      }
    </style>
  </defs>
  <g id="art">
    <g>
      <path d="M20.92,3.62c-.1-.24-.3-.44-.54-.54-.12-.05-.25-.08-.38-.08h-5c-.55,0-1,.45-1,1s.45,1,1,1h2.59l-3.29,3.29c-.39.39-.39,1.02,0,1.41.2.2.45.29.71.29s.51-.1.71-.29l3.29-3.29v2.59c0,.55.45,1,1,1s1-.45,1-1v-5c0-.13-.03-.26-.08-.38Z"/>
      <path d="M6.41,5h2.59c.55,0,1-.45,1-1s-.45-1-1-1h-5c-.13,0-.26.03-.38.08-.24.1-.44.3-.54.54-.05.12-.08.25-.08.38v5c0,.55.45,1,1,1s1-.45,1-1v-2.59l4.54,4.54c.94.95,1.46,2.2,1.46,3.54v5.51c0,.55.45,1,1,1s1-.45,1-1v-5.51c0-1.87-.73-3.63-2.05-4.95l-4.54-4.54Z"/>
    </g>
  </g>
  <g id="border">
    <path class="st2" d="M0,0v24h24V0H0ZM22,22H2V2h20v20Z"/>
  </g>
  <g id="guides">
    <rect class="st1" x="3" y="3" width="18" height="18" rx="2" ry="2"/>
    <rect class="st1" x="4" y="2" width="16" height="20" rx="2" ry="2"/>
    <rect class="st1" x="2" y="4" width="20" height="16" rx="2" ry="2"/>
    <circle class="st1" cx="12" cy="12" r="10"/>
    <line class="st0" x1="2" y1="2" x2="22" y2="22"/>
    <line class="st0" x1="22" y1="2" x2="2" y2="22"/>
  </g>
</svg>