<?xml version="1.0" encoding="UTF-8"?>
<svg id="art" xmlns="http://www.w3.org/2000/svg" version="1.1" viewBox="0 0 24 24">
  <!-- Generator: Adobe Illustrator 30.6.0, SVG Export Plug-In . SVG Version: 2.1.4 Build 109)  -->
  <path d="M12.35,11.65c-.2-.2-.51-.2-.71,0L3.65,19.65c-.2.2-.2.51,0,.71.1.1.23.15.35.15s.26-.05.35-.15l8-8c.2-.2.2-.51,0-.71Z"/>
  <path d="M18.65,8.65l-8,8c-.2.2-.2.51,0,.71.1.1.23.15.35.15s.26-.05.35-.15l8-8c.2-.2.2-.51,0-.71s-.51-.2-.71,0Z"/>
  <path d="M20.35,3.65c-.2-.2-.51-.2-.71,0l-5,5c-.2.2-.2.51,0,.71.1.1.23.15.35.15s.26-.05.35-.15l5-5c.2-.2.2-.51,0-.71Z"/>
</svg>