<?xml version="1.0" encoding="UTF-8"?>
<svg xmlns="http://www.w3.org/2000/svg" version="1.1" viewBox="0 0 24 24">
  <!-- Generator: Adobe Illustrator 30.6.0, SVG Export Plug-In . SVG Version: 2.1.4 Build 109)  -->
  <defs>
    <style>
      .st0 {
        stroke-linecap: round;
        stroke-linejoin: round;
      }

      .st0, .st1 {
        fill: none;
        opacity: .2;
        stroke: #ccc;
        stroke-width: .1px;
      }

      .st1 {
        stroke-miterlimit: 10;
      }

      .st2 {
        fill: red;
        opacity: .15;
      }
    </style>
  </defs>
  <g id="art">
    <path d="M15,8.5c0,.55.45,1,1,1h5c.55,0,1-.45,1-1V3.5c0-.55-.45-1-1-1s-1,.45-1,1v2.52c-1.87-2.51-4.8-4.02-8-4.02C6.49,2,2,6.49,2,12s4.49,10,10,10,10-4.49,10-10c0-.55-.45-1-1-1s-1,.45-1,1c0,4.41-3.59,8-8,8s-8-3.59-8-8S7.59,4,12,4c2.68,0,5.13,1.32,6.61,3.5h-2.61c-.55,0-1,.45-1,1Z"/>
  </g>
  <g id="border">
    <path class="st2" d="M0,0v24h24V0H0ZM22,22H2V2h20v20Z"/>
  </g>
  <g id="guides">
    <rect class="st1" x="3" y="3" width="18" height="18" rx="2" ry="2"/>
    <rect class="st1" x="4" y="2" width="16" height="20" rx="2" ry="2"/>
    <rect class="st1" x="2" y="4" width="20" height="16" rx="2" ry="2"/>
    <circle class="st1" cx="12" cy="12" r="10"/>
    <line class="st0" x1="2" y1="2" x2="22" y2="22"/>
    <line class="st0" x1="22" y1="2" x2="2" y2="22"/>
  </g>
</svg>