<?xml version="1.0" encoding="UTF-8"?>
<svg id="art" xmlns="http://www.w3.org/2000/svg" version="1.1" viewBox="0 0 24 24">
  <!-- Generator: Adobe Illustrator 30.6.0, SVG Export Plug-In . SVG Version: 2.1.4 Build 109)  -->
  <path d="M18,12.1v-4.1h2c.55,0,1-.45,1-1s-.45-1-1-1h-2v-2c0-.55-.45-1-1-1s-1,.45-1,1v2h-3v-2c0-.55-.45-1-1-1s-1,.45-1,1v2h-3v-2c0-.55-.45-1-1-1s-1,.45-1,1v2h-2c-.55,0-1,.45-1,1s.45,1,1,1h2v3h-2c-.55,0-1,.45-1,1s.45,1,1,1h2v3h-2c-.55,0-1,.45-1,1s.45,1,1,1h2v2c0,.55.45,1,1,1s1-.45,1-1v-2h4.1c.46,2.28,2.48,4,4.9,4,2.76,0,5-2.24,5-5,0-2.41-1.72-4.43-4-4.9ZM8,8h3v3h-3v-3ZM8,13h3c0,.55.45,1,1,1s1-.45,1-1c.55,0,1-.45,1-1s-.45-1-1-1v-3h3v4.1c-1.96.4-3.5,1.94-3.9,3.9h-4.1v-3ZM17,20c-1.65,0-3-1.35-3-3s1.35-3,3-3,3,1.35,3,3-1.35,3-3,3Z"/>
  <circle cx="17" cy="17" r="1"/>
</svg>