<?xml version="1.0" encoding="UTF-8"?>
<svg xmlns="http://www.w3.org/2000/svg" version="1.1" viewBox="0 0 24 24">
  <!-- Generator: Adobe Illustrator 30.6.0, SVG Export Plug-In . SVG Version: 2.1.4 Build 109)  -->
  <defs>
    <style>
      .st0 {
        stroke-linecap: round;
        stroke-linejoin: round;
      }

      .st0, .st1 {
        fill: none;
        opacity: .2;
        stroke: #ccc;
        stroke-width: .1px;
      }

      .st1 {
        stroke-miterlimit: 10;
      }

      .st2 {
        fill: red;
        opacity: .15;
      }
    </style>
  </defs>
  <g id="art">
    <g>
      <circle cx="12" cy="15" r="2"/>
      <path d="M17,3c-2.76,0-5,2.24-5,5v1h-4c-1.65,0-3,1.35-3,3v6c0,1.65,1.35,3,3,3h8c1.65,0,3-1.35,3-3v-6c0-1.65-1.35-3-3-3h-2v-1c0-1.65,1.35-3,3-3s3,1.35,3,3v2c0,.55.45,1,1,1s1-.45,1-1v-2c0-2.76-2.24-5-5-5ZM17,12v6c0,.55-.45,1-1,1h-8c-.55,0-1-.45-1-1v-6c0-.55.45-1,1-1h8c.55,0,1,.45,1,1Z"/>
    </g>
  </g>
  <g id="border">
    <path class="st2" d="M0,0v24h24V0H0ZM22,22H2V2h20v20Z"/>
  </g>
  <g id="guides">
    <rect class="st1" x="3" y="3" width="18" height="18" rx="2" ry="2"/>
    <rect class="st1" x="4" y="2" width="16" height="20" rx="2" ry="2"/>
    <rect class="st1" x="2" y="4" width="20" height="16" rx="2" ry="2"/>
    <circle class="st1" cx="12" cy="12" r="10"/>
    <line class="st0" x1="2" y1="2" x2="22" y2="22"/>
    <line class="st0" x1="22" y1="2" x2="2" y2="22"/>
  </g>
</svg>