<?xml version="1.0" encoding="UTF-8"?>
<svg id="art" xmlns="http://www.w3.org/2000/svg" version="1.1" viewBox="0 0 24 24">
  <!-- Generator: Adobe Illustrator 30.6.0, SVG Export Plug-In . SVG Version: 2.1.4 Build 109)  -->
  <path d="M12,8.5c-.71,0-1.36.22-1.91.59l.72.72c.35-.19.76-.31,1.19-.31,1.38,0,2.5,1.12,2.5,2.5,0,.43-.12.84-.31,1.19l.72.72c.37-.55.59-1.2.59-1.91,0-1.93-1.57-3.5-3.5-3.5Z"/>
  <path d="M16.2,17.49l-.76-.76-1.71-1.71-.73-.73-3.29-3.29-.73-.73-2.04-2.04-.73-.73-2.85-2.85c-.2-.2-.51-.2-.71,0s-.2.51,0,.71l2.78,2.78c-1.85,1.65-2.81,3.5-2.88,3.64-.07.14-.07.31,0,.45.13.26,3.21,6.28,9.45,6.28,1.19,0,2.26-.22,3.22-.57l3.43,3.43c.1.1.23.15.35.15s.26-.05.35-.15c.2-.2.2-.51,0-.71l-3.15-3.15ZM11.77,14.48c-1.19-.11-2.14-1.05-2.25-2.25l2.25,2.25ZM12,17.5c-4.97,0-7.82-4.44-8.43-5.5.3-.53,1.17-1.9,2.58-3.14l2.43,2.43c-.05.23-.08.47-.08.72,0,1.93,1.57,3.5,3.5,3.5.25,0,.49-.03.72-.08l1.7,1.7c-.74.23-1.55.37-2.42.37Z"/>
  <path d="M21.45,11.78c-.13-.26-3.21-6.28-9.45-6.28-1.7,0-3.16.45-4.39,1.11l.76.76c1.05-.52,2.26-.86,3.63-.86,4.97,0,7.82,4.44,8.43,5.5-.37.64-1.57,2.5-3.55,3.88l.74.74c2.48-1.79,3.74-4.24,3.82-4.4.07-.14.07-.31,0-.45Z"/>
</svg>