<?xml version="1.0" encoding="UTF-8"?>
<svg id="art" xmlns="http://www.w3.org/2000/svg" version="1.1" viewBox="0 0 24 24">
  <!-- Generator: Adobe Illustrator 30.6.0, SVG Export Plug-In . SVG Version: 2.1.4 Build 109)  -->
  <path d="M3.65,7.94l8,3c.11.04.23.06.35.06s.24-.02.35-.06l8-3c.39-.15.65-.52.65-.94s-.26-.79-.65-.94l-8-3c-.23-.08-.48-.08-.7,0L3.65,6.06c-.39.15-.65.52-.65.94s.26.79.65.94ZM12,5.07l5.15,1.93-5.15,1.93-5.15-1.93,5.15-1.93Z"/>
  <path d="M19.65,10.06l-7.65,2.87-7.65-2.87c-.52-.19-1.09.07-1.29.59-.19.52.07,1.09.59,1.29l8,3c.11.04.23.06.35.06s.24-.02.35-.06l8-3c.52-.19.78-.77.58-1.29-.19-.52-.77-.78-1.29-.59Z"/>
  <path d="M12,17.43l-7.65-2.87c-.52-.19-1.09.07-1.29.59-.19.52.07,1.09.59,1.29l8,3c.11.04.23.06.35.06s.24-.02.35-.06l.7-.26c-.04-.22-.05-.45-.05-.68,0-.53.08-1.04.22-1.53l-1.22.46Z"/>
  <path d="M18.5,14c-2.49,0-4.5,2.01-4.5,4.5s2.01,4.5,4.5,4.5,4.5-2.01,4.5-4.5-2.01-4.5-4.5-4.5ZM21,19h-2v2c0,.28-.22.5-.5.5s-.5-.22-.5-.5v-2h-2c-.28,0-.5-.22-.5-.5s.22-.5.5-.5h2v-2c0-.28.22-.5.5-.5s.5.22.5.5v2h2c.28,0,.5.22.5.5s-.22.5-.5.5Z"/>
</svg>